<svg xmlns="http://www.w3.org/2000/svg" width="128" height="128" viewBox="0 0 128 128">
  <path fill="#0C0C0C" fill-opacity=".8" fill-rule="evenodd" d="M73.670122,13.6100076 L74.0295776,13.8134494 L102.029578,30.0431044 C108.088719,33.5551679 111.861068,39.9746414 111.996241,46.957974 L112,47.3465021 L112,80.559065 C112,87.5494623 108.351304,94.0223789 102.394948,97.6454822 L102.061674,97.843819 L80.779,110.231847 L81.1758139,121.515197 C81.1945694,122.049799 81.1058808,122.581805 80.9160109,123.079986 L80.8126732,123.326113 C79.9188218,125.27061 77.6618564,126.156477 75.6968032,125.371086 L75.5076036,125.289843 L64,120 L25.9383263,97.843819 C19.8969615,94.3270642 16.1384223,87.9173047 16.0037453,80.9468732 L16,80.559065 L16,47.3465021 C16,40.3430896 19.6621821,33.860137 25.6361646,30.2411953 L25.9704224,30.0431044 L53.9704224,13.8134494 C60.0541703,10.2871234 67.5327275,10.2193094 73.670122,13.6100076 Z M57.5244907,30.7198904 L38.5244907,41.6345403 C34.4884813,43.9530472 32,48.2524238 32,52.9069748 L32,75.0303315 C32,79.6762999 34.47939,83.9691115 38.5036747,86.2907825 L57.5036747,97.2521712 C61.5240206,99.5715698 66.4759794,99.5715698 70.4963253,97.2521712 L89.4963253,86.2907825 C93.52061,83.9691115 96,79.6762999 96,75.0303315 L96,52.9069748 C96,48.2524238 93.5115187,43.9530472 89.4755093,41.6345403 L70.4755093,30.7198904 C66.4657616,28.4164697 61.5342384,28.4164697 57.5244907,30.7198904 Z"/>
</svg>
